REM DIRINDEX 1\2,1\3,1\4,1\5
REM DIRNAME folder01,folder02,folder03,folder04,folder05
TITLE ""
FILE "P1Q_t_1312-1321.mp3" MP3
  TRACK 01 AUDIO
    TITLE "3:cjc005_4843"
    INDEX 01 00:00:00
  TRACK 02 AUDIO
    TITLE "0:"
    INDEX 01 00:00:68
  TRACK 03 AUDIO
    TITLE "4:cjc005_4844"
    INDEX 01 00:01:15
  TRACK 04 AUDIO
    TITLE "0:"
    INDEX 01 00:02:36
  TRACK 05 AUDIO
    TITLE "5:cjc005_4845"
    INDEX 01 00:02:59
  TRACK 06 AUDIO
    TITLE "0:"
    INDEX 01 00:07:33
  TRACK 07 AUDIO
    TITLE "3:cjc005_4846"
    INDEX 01 00:08:09
  TRACK 08 AUDIO
    TITLE "0:"
    INDEX 01 00:09:14
  TRACK 09 AUDIO
    TITLE "4:cjc005_4847"
    INDEX 01 00:09:45
  TRACK 10 AUDIO
    TITLE "0:"
    INDEX 01 00:10:49
  TRACK 11 AUDIO
    TITLE "5:cjc005_4848"
    INDEX 01 00:10:72
  TRACK 12 AUDIO
    TITLE "0:"
    INDEX 01 00:13:26
  TRACK 13 AUDIO
    TITLE "3:cjc005_4849"
    INDEX 01 00:14:07
  TRACK 14 AUDIO
    TITLE "0:"
    INDEX 01 00:15:42
  TRACK 15 AUDIO
    TITLE "4:cjc005_4850"
    INDEX 01 00:15:72
  TRACK 16 AUDIO
    TITLE "0:"
    INDEX 01 00:17:63
  TRACK 17 AUDIO
    TITLE "5:cjc005_4851"
    INDEX 01 00:18:17
  TRACK 18 AUDIO
    TITLE "0:"
    INDEX 01 00:22:11
  TRACK 19 AUDIO
    TITLE "3:cjc005_4852"
    INDEX 01 00:22:64
  TRACK 20 AUDIO
    TITLE "0:"
    INDEX 01 00:24:10
  TRACK 21 AUDIO
    TITLE "4:cjc005_4853"
    INDEX 01 00:24:35
  TRACK 22 AUDIO
    TITLE "0:"
    INDEX 01 00:25:33
  TRACK 23 AUDIO
    TITLE "5:cjc005_4854"
    INDEX 01 00:25:58
  TRACK 24 AUDIO
    TITLE "0:"
    INDEX 01 00:29:11
  TRACK 25 AUDIO
    TITLE "3:cjc005_4855"
    INDEX 01 00:29:66
  TRACK 26 AUDIO
    TITLE "0:"
    INDEX 01 00:31:08
  TRACK 27 AUDIO
    TITLE "4:cjc005_4856"
    INDEX 01 00:31:35
  TRACK 28 AUDIO
    TITLE "0:"
    INDEX 01 00:32:50
  TRACK 29 AUDIO
    TITLE "5:cjc005_4857"
    INDEX 01 00:32:74
  TRACK 30 AUDIO
    TITLE "0:"
    INDEX 01 00:38:61
  TRACK 31 AUDIO
    TITLE "3:cjc005_4858"
    INDEX 01 00:39:35
  TRACK 32 AUDIO
    TITLE "0:"
    INDEX 01 00:40:54
  TRACK 33 AUDIO
    TITLE "4:cjc005_4859"
    INDEX 01 00:41:04
  TRACK 34 AUDIO
    TITLE "0:"
    INDEX 01 00:42:12
  TRACK 35 AUDIO
    TITLE "5:cjc005_4860"
    INDEX 01 00:42:37
  TRACK 36 AUDIO
    TITLE "0:"
    INDEX 01 00:45:49
  TRACK 37 AUDIO
    TITLE "3:cjc005_4861"
    INDEX 01 00:46:25
  TRACK 38 AUDIO
    TITLE "0:"
    INDEX 01 00:47:56
  TRACK 39 AUDIO
    TITLE "4:cjc005_4862"
    INDEX 01 00:48:02
  TRACK 40 AUDIO
    TITLE "0:"
    INDEX 01 00:49:06
  TRACK 41 AUDIO
    TITLE "5:cjc005_4863"
    INDEX 01 00:49:29
  TRACK 42 AUDIO
    TITLE "0:"
    INDEX 01 00:54:17
  TRACK 43 AUDIO
    TITLE "3:cjc005_4864"
    INDEX 01 00:54:68
  TRACK 44 AUDIO
    TITLE "0:"
    INDEX 01 00:56:12
  TRACK 45 AUDIO
    TITLE "4:cjc005_4865"
    INDEX 01 00:56:35
  TRACK 46 AUDIO
    TITLE "0:"
    INDEX 01 00:57:37
  TRACK 47 AUDIO
    TITLE "5:cjc005_4866"
    INDEX 01 00:57:66
  TRACK 48 AUDIO
    TITLE "0:"
    INDEX 01 01:02:38
  TRACK 49 AUDIO
    TITLE "3:cjc005_4867"
    INDEX 01 01:03:14
  TRACK 50 AUDIO
    TITLE "0:"
    INDEX 01 01:04:39
  TRACK 51 AUDIO
    TITLE "4:cjc005_4868"
    INDEX 01 01:04:64
  TRACK 52 AUDIO
    TITLE "0:"
    INDEX 01 01:06:34
  TRACK 53 AUDIO
    TITLE "5:cjc005_4869"
    INDEX 01 01:06:59
  TRACK 54 AUDIO
    TITLE "0:"
    INDEX 01 01:10:65
  TRACK 55 AUDIO
    TITLE "3:cjc005_4870"
    INDEX 01 01:11:45
  TRACK 56 AUDIO
    TITLE "0:"
    INDEX 01 01:13:14
  TRACK 57 AUDIO
    TITLE "4:cjc005_4871"
    INDEX 01 01:13:42
  TRACK 58 AUDIO
    TITLE "0:"
    INDEX 01 01:14:53
  TRACK 59 AUDIO
    TITLE "5:cjc005_4872"
    INDEX 01 01:15:05
  TRACK 60 AUDIO
    TITLE "0:"
    INDEX 01 01:20:10
